<svg width="348" height="106" viewBox="0 0 348 106" fill="none" xmlns="http://www.w3.org/2000/svg">
<g filter="url(#filter0_di_1_2)">
<path d="M60.484 54.084C60.484 54.6813 60.3347 55.172 60.036 55.556C59.78 55.94 59.3107 56.3453 58.628 56.772L31.748 74.052C31.5347 74.18 31.3 74.244 31.044 74.244C30.66 74.244 30.34 74.116 30.084 73.86C29.828 73.604 29.7 73.284 29.7 72.9V62.532C29.7 61.892 29.8493 61.4013 30.148 61.06C30.4893 60.676 30.8093 60.3773 31.108 60.164C31.4493 59.9507 31.6627 59.8227 31.748 59.78L42.948 52.74L31.748 45.7C31.6627 45.6573 31.4067 45.508 30.98 45.252C30.596 44.996 30.276 44.676 30.02 44.292C29.8067 43.908 29.7 43.46 29.7 42.948V32.58C29.7 32.196 29.828 31.876 30.084 31.62C30.34 31.364 30.66 31.236 31.044 31.236C31.3 31.236 31.5347 31.3 31.748 31.428L58.628 48.708C59.3107 49.1347 59.78 49.54 60.036 49.924C60.3347 50.308 60.484 50.7987 60.484 51.396V54.084ZM139.922 56.516C139.922 63.0013 137.789 67.844 133.522 71.044C129.255 74.2013 123.559 75.78 116.434 75.78C111.314 75.78 106.941 74.9693 103.314 73.348C99.73 71.684 97.0207 69.5933 95.186 67.076C93.394 64.5587 92.498 62.02 92.498 59.46C92.498 59.076 92.626 58.756 92.882 58.5C93.1807 58.2013 93.522 58.052 93.906 58.052H108.37C108.754 58.052 109.074 58.18 109.33 58.436C109.629 58.692 109.842 59.0333 109.97 59.46C110.781 62.02 112.829 63.3 116.114 63.3C118.119 63.3 119.698 62.8307 120.85 61.892C122.045 60.9533 122.642 59.6093 122.642 57.86V43.46H99.282C98.8127 43.46 98.4073 43.2893 98.066 42.948C97.7247 42.6067 97.554 42.2013 97.554 41.732V32.068C97.554 31.5987 97.7247 31.1933 98.066 30.852C98.4073 30.5107 98.8127 30.34 99.282 30.34H138.194C138.663 30.34 139.069 30.5107 139.41 30.852C139.751 31.1933 139.922 31.5987 139.922 32.068V56.516ZM158.585 46.596C163.278 47.108 167.033 47.94 169.849 49.092C172.708 50.244 174.777 51.7587 176.057 53.636C177.337 55.5133 177.977 57.86 177.977 60.676C177.977 63.748 176.974 66.436 174.969 68.74C173.006 71.0013 170.276 72.7507 166.777 73.988C163.278 75.1827 159.289 75.78 154.809 75.78C149.817 75.78 145.593 75.1613 142.137 73.924C138.681 72.6867 136.1 71.044 134.393 68.996C132.686 66.9053 131.833 64.6227 131.833 62.148C131.833 61.7213 131.961 61.38 132.217 61.124C132.516 60.868 132.878 60.74 133.305 60.74H146.425C147.321 60.74 148.046 61.0173 148.601 61.572C149.326 62.2547 150.137 62.724 151.033 62.98C151.929 63.1933 153.188 63.3 154.809 63.3C158.862 63.3 160.889 62.6813 160.889 61.444C160.889 60.932 160.612 60.5053 160.057 60.164C159.545 59.78 158.606 59.46 157.241 59.204C155.918 58.9053 153.956 58.6067 151.353 58.308C145.508 57.6253 141.028 56.1747 137.913 53.956C134.798 51.6947 133.241 48.516 133.241 44.42C133.241 41.5187 134.116 38.9587 135.865 36.74C137.614 34.5213 140.089 32.7933 143.289 31.556C146.532 30.3187 150.286 29.7 154.553 29.7C158.99 29.7 162.873 30.404 166.201 31.812C169.529 33.1773 172.068 34.884 173.817 36.932C175.566 38.98 176.441 40.9853 176.441 42.948C176.441 43.3747 176.292 43.716 175.993 43.972C175.737 44.228 175.374 44.356 174.905 44.356H161.145C160.42 44.356 159.758 44.1 159.161 43.588C158.692 43.1613 158.137 42.82 157.497 42.564C156.857 42.308 155.876 42.18 154.553 42.18C151.694 42.18 150.265 42.7773 150.265 43.972C150.265 44.612 150.82 45.124 151.929 45.508C153.038 45.8493 155.257 46.212 158.585 46.596ZM195.68 46.596C200.373 47.108 204.128 47.94 206.944 49.092C209.803 50.244 211.872 51.7587 213.152 53.636C214.432 55.5133 215.072 57.86 215.072 60.676C215.072 63.748 214.069 66.436 212.064 68.74C210.101 71.0013 207.371 72.7507 203.872 73.988C200.373 75.1827 196.384 75.78 191.904 75.78C186.912 75.78 182.688 75.1613 179.232 73.924C175.776 72.6867 173.195 71.044 171.488 68.996C169.781 66.9053 168.928 64.6227 168.928 62.148C168.928 61.7213 169.056 61.38 169.312 61.124C169.611 60.868 169.973 60.74 170.4 60.74H183.52C184.416 60.74 185.141 61.0173 185.696 61.572C186.421 62.2547 187.232 62.724 188.128 62.98C189.024 63.1933 190.283 63.3 191.904 63.3C195.957 63.3 197.984 62.6813 197.984 61.444C197.984 60.932 197.707 60.5053 197.152 60.164C196.64 59.78 195.701 59.46 194.336 59.204C193.013 58.9053 191.051 58.6067 188.448 58.308C182.603 57.6253 178.123 56.1747 175.008 53.956C171.893 51.6947 170.336 48.516 170.336 44.42C170.336 41.5187 171.211 38.9587 172.96 36.74C174.709 34.5213 177.184 32.7933 180.384 31.556C183.627 30.3187 187.381 29.7 191.648 29.7C196.085 29.7 199.968 30.404 203.296 31.812C206.624 33.1773 209.163 34.884 210.912 36.932C212.661 38.98 213.536 40.9853 213.536 42.948C213.536 43.3747 213.387 43.716 213.088 43.972C212.832 44.228 212.469 44.356 212 44.356H198.24C197.515 44.356 196.853 44.1 196.256 43.588C195.787 43.1613 195.232 42.82 194.592 42.564C193.952 42.308 192.971 42.18 191.648 42.18C188.789 42.18 187.36 42.7773 187.36 43.972C187.36 44.612 187.915 45.124 189.024 45.508C190.133 45.8493 192.352 46.212 195.68 46.596ZM223.367 57.86C223.367 59.6093 223.943 60.9533 225.095 61.892C226.29 62.8307 227.89 63.3 229.895 63.3C231.687 63.3 233.01 63.0013 233.863 62.404C234.716 61.8067 235.442 60.9107 236.039 59.716C236.594 58.6067 237.34 58.052 238.279 58.052H252.103C252.487 58.052 252.807 58.2013 253.063 58.5C253.362 58.756 253.511 59.076 253.511 59.46C253.511 62.0627 252.636 64.6227 250.887 67.14C249.138 69.6147 246.471 71.684 242.887 73.348C239.346 74.9693 235.015 75.78 229.895 75.78C225.33 75.78 221.255 75.0973 217.671 73.732C214.13 72.324 211.314 70.1907 209.223 67.332C207.132 64.4307 206.087 60.8253 206.087 56.516V48.964C206.087 44.6547 207.132 41.0707 209.223 38.212C211.314 35.3107 214.13 33.1773 217.671 31.812C221.255 30.404 225.33 29.7 229.895 29.7C235.015 29.7 239.346 30.532 242.887 32.196C246.471 33.8173 249.138 35.8867 250.887 38.404C252.636 40.8787 253.511 43.4173 253.511 46.02C253.511 46.404 253.362 46.7453 253.063 47.044C252.807 47.3 252.487 47.428 252.103 47.428H238.279C237.34 47.428 236.594 46.8733 236.039 45.764C235.442 44.5693 234.716 43.6733 233.863 43.076C233.01 42.4787 231.687 42.18 229.895 42.18C227.89 42.18 226.29 42.6493 225.095 43.588C223.943 44.5267 223.367 45.8707 223.367 47.62V57.86ZM286.805 51.396C286.805 50.7987 286.933 50.308 287.189 49.924C287.488 49.54 287.978 49.1347 288.661 48.708L315.541 31.428C315.754 31.3 315.989 31.236 316.245 31.236C316.629 31.236 316.949 31.364 317.205 31.62C317.461 31.876 317.589 32.196 317.589 32.58V42.948C317.589 43.588 317.418 44.1 317.077 44.484C316.778 44.8253 316.458 45.1027 316.117 45.316C315.818 45.5293 315.626 45.6573 315.541 45.7L304.341 52.74L315.541 59.78C315.626 59.8227 315.861 59.972 316.245 60.228C316.672 60.484 316.992 60.804 317.205 61.188C317.461 61.572 317.589 62.02 317.589 62.532V72.9C317.589 73.284 317.461 73.604 317.205 73.86C316.949 74.116 316.629 74.244 316.245 74.244C315.989 74.244 315.754 74.18 315.541 74.052L288.661 56.772C287.978 56.3453 287.488 55.94 287.189 55.556C286.933 55.172 286.805 54.6813 286.805 54.084V51.396Z" fill="#F8F8FF" shape-rendering="crispEdges"/>
<path d="M60.036 55.556L59.6413 55.249C59.6339 55.2586 59.6267 55.2685 59.62 55.2786L60.036 55.556ZM58.628 56.772L58.363 56.348L58.3576 56.3514L58.628 56.772ZM31.748 74.052L32.0052 74.4807C32.0097 74.4781 32.014 74.4754 32.0184 74.4726L31.748 74.052ZM30.084 73.86L30.4376 73.5064V73.5064L30.084 73.86ZM30.148 61.06L29.7743 60.7278L29.7717 60.7307L30.148 61.06ZM31.108 60.164L30.843 59.74C30.8343 59.7454 30.8257 59.7512 30.8174 59.7571L31.108 60.164ZM31.748 59.78L31.9716 60.2272C31.9862 60.2199 32.0003 60.212 32.0141 60.2033L31.748 59.78ZM42.948 52.74L43.2141 53.1633C43.3597 53.0718 43.448 52.9119 43.448 52.74C43.448 52.5681 43.3597 52.4082 43.2141 52.3167L42.948 52.74ZM31.748 45.7L32.0141 45.2767C32.0003 45.268 31.9862 45.2601 31.9716 45.2528L31.748 45.7ZM30.98 45.252L30.7027 45.668C30.7093 45.6724 30.716 45.6767 30.7228 45.6807L30.98 45.252ZM30.02 44.292L29.5829 44.5348C29.5895 44.5466 29.5965 44.5581 29.604 44.5693L30.02 44.292ZM30.084 31.62L30.4376 31.9736V31.9736L30.084 31.62ZM31.748 31.428L32.0184 31.0074C32.014 31.0046 32.0097 31.0019 32.0052 30.9993L31.748 31.428ZM58.628 48.708L58.3576 49.1286L58.363 49.132L58.628 48.708ZM60.036 49.924L59.62 50.2013C59.6267 50.2115 59.6339 50.2214 59.6413 50.231L60.036 49.924ZM60.484 54.084H59.984C59.984 54.5961 59.8573 54.9713 59.6413 55.249L60.036 55.556L60.4307 55.863C60.812 55.3727 60.984 54.7665 60.984 54.084H60.484ZM60.036 55.556L59.62 55.2786C59.4224 55.575 59.0238 55.935 58.363 56.348L58.628 56.772L58.893 57.196C59.5976 56.7556 60.1376 56.305 60.452 55.8333L60.036 55.556ZM58.628 56.772L58.3576 56.3514L31.4776 73.6314L31.748 74.052L32.0184 74.4726L58.8984 57.1926L58.628 56.772ZM31.748 74.052L31.4908 73.6233C31.3575 73.7032 31.2121 73.744 31.044 73.744V74.244V74.744C31.3879 74.744 31.7119 74.6568 32.0052 74.4807L31.748 74.052ZM31.044 74.244V73.744C30.7837 73.744 30.5937 73.6625 30.4376 73.5064L30.084 73.86L29.7304 74.2136C30.0863 74.5695 30.5363 74.744 31.044 74.744V74.244ZM30.084 73.86L30.4376 73.5064C30.2815 73.3503 30.2 73.1603 30.2 72.9H29.7H29.2C29.2 73.4077 29.3745 73.8577 29.7304 74.2136L30.084 73.86ZM29.7 72.9H30.2V62.532H29.7H29.2V72.9H29.7ZM29.7 62.532H30.2C30.2 61.9637 30.3328 61.6081 30.5243 61.3893L30.148 61.06L29.7717 60.7307C29.3659 61.1946 29.2 61.8203 29.2 62.532H29.7ZM30.148 61.06L30.5217 61.3922C30.8473 61.0259 31.1397 60.7558 31.3986 60.5709L31.108 60.164L30.8174 59.7571C30.479 59.9989 30.1314 60.3261 29.7743 60.7278L30.148 61.06ZM31.108 60.164L31.373 60.588C31.7226 60.3695 31.9125 60.2568 31.9716 60.2272L31.748 59.78L31.5244 59.3328C31.4128 59.3886 31.1761 59.5318 30.843 59.74L31.108 60.164ZM31.748 59.78L32.0141 60.2033L43.2141 53.1633L42.948 52.74L42.6819 52.3167L31.4819 59.3567L31.748 59.78ZM42.948 52.74L43.2141 52.3167L32.0141 45.2767L31.748 45.7L31.4819 46.1233L42.6819 53.1633L42.948 52.74ZM31.748 45.7L31.9716 45.2528C31.908 45.221 31.6729 45.0846 31.2373 44.8233L30.98 45.252L30.7228 45.6807C31.1404 45.9314 31.4173 46.0937 31.5244 46.1472L31.748 45.7ZM30.98 45.252L31.2574 44.836C30.9283 44.6166 30.6554 44.3437 30.436 44.0146L30.02 44.292L29.604 44.5693C29.8966 45.0083 30.2637 45.3754 30.7027 45.668L30.98 45.252ZM30.02 44.292L30.4571 44.0492C30.2914 43.7509 30.2 43.3892 30.2 42.948H29.7H29.2C29.2 43.5308 29.322 44.0651 29.5829 44.5348L30.02 44.292ZM29.7 42.948H30.2V32.58H29.7H29.2V42.948H29.7ZM29.7 32.58H30.2C30.2 32.3197 30.2815 32.1297 30.4376 31.9736L30.084 31.62L29.7304 31.2664C29.3745 31.6223 29.2 32.0723 29.2 32.58H29.7ZM30.084 31.62L30.4376 31.9736C30.5937 31.8174 30.7837 31.736 31.044 31.736V31.236V30.736C30.5363 30.736 30.0863 30.9105 29.7304 31.2664L30.084 31.62ZM31.044 31.236V31.736C31.2121 31.736 31.3575 31.7768 31.4908 31.8567L31.748 31.428L32.0052 30.9993C31.7119 30.8232 31.3879 30.736 31.044 30.736V31.236ZM31.748 31.428L31.4776 31.8486L58.3576 49.1286L58.628 48.708L58.8984 48.2874L32.0184 31.0074L31.748 31.428ZM58.628 48.708L58.363 49.132C59.0238 49.545 59.4224 49.905 59.62 50.2013L60.036 49.924L60.452 49.6466C60.1376 49.175 59.5976 48.7243 58.893 48.284L58.628 48.708ZM60.036 49.924L59.6413 50.231C59.8573 50.5087 59.984 50.8839 59.984 51.396H60.484H60.984C60.984 50.7135 60.812 50.1073 60.4307 49.617L60.036 49.924ZM60.484 51.396H59.984V54.084H60.484H60.984V51.396H60.484ZM133.522 71.044L133.819 71.4459L133.822 71.444L133.522 71.044ZM103.314 73.348L103.103 73.8016L103.11 73.8045L103.314 73.348ZM95.186 67.076L94.7786 67.366L94.7819 67.3705L95.186 67.076ZM92.882 58.5L92.5285 58.1464V58.1464L92.882 58.5ZM109.33 58.436L108.976 58.7896C108.986 58.7986 108.995 58.8073 109.005 58.8156L109.33 58.436ZM109.97 59.46L109.491 59.6037L109.493 59.6109L109.97 59.46ZM120.85 61.892L120.541 61.4988L120.534 61.5044L120.85 61.892ZM122.642 43.46H123.142C123.142 43.1839 122.918 42.96 122.642 42.96V43.46ZM98.066 42.948L97.7124 43.3016V43.3016L98.066 42.948ZM139.41 30.852L139.764 30.4984V30.4984L139.41 30.852ZM139.922 56.516H139.422C139.422 62.882 137.335 67.5591 133.222 70.644L133.522 71.044L133.822 71.444C138.242 68.1289 140.422 63.1207 140.422 56.516H139.922ZM133.522 71.044L133.225 70.6421C129.069 73.7171 123.489 75.28 116.434 75.28V75.78V76.28C123.63 76.28 129.441 74.6856 133.819 71.4459L133.522 71.044ZM116.434 75.78V75.28C111.365 75.28 107.065 74.4772 103.518 72.8915L103.314 73.348L103.11 73.8045C106.816 75.4615 111.263 76.28 116.434 76.28V75.78ZM103.314 73.348L103.525 72.8945C99.9973 71.2568 97.3631 69.2142 95.5901 66.7815L95.186 67.076L94.7819 67.3705C96.6783 69.9724 99.4628 72.1112 103.103 73.8015L103.314 73.348ZM95.186 67.076L95.5933 66.786C93.8489 64.3355 92.998 61.8961 92.998 59.46H92.498H91.998C91.998 62.1439 92.9391 64.7818 94.7787 67.366L95.186 67.076ZM92.498 59.46H92.998C92.998 59.1997 93.0795 59.0097 93.2356 58.8535L92.882 58.5L92.5285 58.1464C92.1725 58.5023 91.998 58.9523 91.998 59.46H92.498ZM92.882 58.5L93.2356 58.8535C93.4508 58.6384 93.6685 58.552 93.906 58.552V58.052V57.552C93.3755 57.552 92.9106 57.7643 92.5285 58.1464L92.882 58.5ZM93.906 58.052V58.552H108.37V58.052V57.552H93.906V58.052ZM108.37 58.052V58.552C108.63 58.552 108.82 58.6334 108.976 58.7896L109.33 58.436L109.684 58.0824C109.328 57.7265 108.878 57.552 108.37 57.552V58.052ZM109.33 58.436L109.005 58.8156C109.221 59.0013 109.387 59.2562 109.491 59.6037L109.97 59.46L110.449 59.3163C110.297 58.8104 110.036 58.3827 109.655 58.0564L109.33 58.436ZM109.97 59.46L109.493 59.6109C109.93 60.9907 110.713 62.0539 111.849 62.764C112.976 63.4685 114.41 63.8 116.114 63.8V63.3V62.8C114.532 62.8 113.3 62.4915 112.379 61.916C111.467 61.3461 110.82 60.4893 110.447 59.3091L109.97 59.46ZM116.114 63.3V63.8C118.194 63.8 119.898 63.3128 121.166 62.2796L120.85 61.892L120.534 61.5044C119.498 62.3485 118.044 62.8 116.114 62.8V63.3ZM120.85 61.892L121.159 62.2852C122.493 61.2366 123.142 59.7365 123.142 57.86H122.642H122.142C122.142 59.4821 121.596 60.6701 120.541 61.4988L120.85 61.892ZM122.642 57.86H123.142V43.46H122.642H122.142V57.86H122.642ZM122.642 43.46V42.96H99.282V43.46V43.96H122.642V43.46ZM99.282 43.46V42.96C98.9494 42.96 98.6701 42.845 98.4196 42.5944L98.066 42.948L97.7124 43.3016C98.1446 43.7337 98.6759 43.96 99.282 43.96V43.46ZM98.066 42.948L98.4196 42.5944C98.169 42.3439 98.054 42.0646 98.054 41.732H97.554H97.054C97.054 42.3381 97.2803 42.8694 97.7124 43.3016L98.066 42.948ZM97.554 41.732H98.054V32.068H97.554H97.054V41.732H97.554ZM97.554 32.068H98.054C98.054 31.7354 98.169 31.4561 98.4196 31.2056L98.066 30.852L97.7124 30.4984C97.2803 30.9306 97.054 31.4619 97.054 32.068H97.554ZM98.066 30.852L98.4196 31.2056C98.6701 30.955 98.9494 30.84 99.282 30.84V30.34V29.84C98.6759 29.84 98.1446 30.0663 97.7124 30.4984L98.066 30.852ZM99.282 30.34V30.84H138.194V30.34V29.84H99.282V30.34ZM138.194 30.34V30.84C138.527 30.84 138.806 30.955 139.056 31.2056L139.41 30.852L139.764 30.4984C139.331 30.0663 138.8 29.84 138.194 29.84V30.34ZM139.41 30.852L139.056 31.2055C139.307 31.4561 139.422 31.7354 139.422 32.068H139.922H140.422C140.422 31.4619 140.196 30.9306 139.764 30.4984L139.41 30.852ZM139.922 32.068H139.422V56.516H139.922H140.422V32.068H139.922ZM158.585 46.596L158.528 47.0927L158.531 47.0931L158.585 46.596ZM169.849 49.092L169.66 49.5548L169.662 49.5558L169.849 49.092ZM176.057 53.636L175.644 53.9177V53.9177L176.057 53.636ZM174.969 68.74L174.592 68.4117L174.591 68.4123L174.969 68.74ZM166.777 73.988L166.939 74.4612L166.944 74.4594L166.777 73.988ZM142.137 73.924L141.968 74.3947V74.3947L142.137 73.924ZM134.393 68.996L134.006 69.3122L134.009 69.3161L134.393 68.996ZM132.217 61.124L131.892 60.7444C131.882 60.7527 131.872 60.7614 131.863 60.7704L132.217 61.124ZM148.601 61.572L148.247 61.9256C148.251 61.9291 148.255 61.9326 148.258 61.9361L148.601 61.572ZM151.033 62.98L150.896 63.4608C150.903 63.4628 150.91 63.4647 150.917 63.4664L151.033 62.98ZM160.057 60.164L159.757 60.564C159.769 60.5732 159.782 60.5818 159.795 60.5898L160.057 60.164ZM157.241 59.204L157.131 59.6917C157.137 59.6931 157.143 59.6943 157.149 59.6954L157.241 59.204ZM151.353 58.308L151.295 58.8046L151.296 58.8047L151.353 58.308ZM137.913 53.956L137.619 54.3606L137.623 54.3632L137.913 53.956ZM135.865 36.74L135.472 36.4304V36.4304L135.865 36.74ZM143.289 31.556L143.111 31.0888L143.109 31.0896L143.289 31.556ZM166.201 31.812L166.006 32.2725L166.011 32.2746L166.201 31.812ZM173.817 36.932L173.437 37.2567V37.2567L173.817 36.932ZM175.993 43.972L175.668 43.5924C175.658 43.6007 175.648 43.6094 175.639 43.6184L175.993 43.972ZM159.161 43.588L158.825 43.958C158.828 43.9612 158.832 43.9645 158.836 43.9676L159.161 43.588ZM157.497 42.564L157.311 43.0282V43.0282L157.497 42.564ZM151.929 45.508L151.765 45.9805C151.771 45.9824 151.776 45.9842 151.782 45.9859L151.929 45.508ZM158.585 46.596L158.531 47.0931C163.2 47.6024 166.904 48.4274 169.66 49.5548L169.849 49.092L170.038 48.6292C167.162 47.4526 163.356 46.6136 158.639 46.0989L158.585 46.596ZM169.849 49.092L169.662 49.5558C172.461 50.6836 174.436 52.1465 175.644 53.9177L176.057 53.636L176.47 53.3543C175.118 51.3709 172.954 49.8044 170.036 48.6282L169.849 49.092ZM176.057 53.636L175.644 53.9177C176.855 55.694 177.477 57.9363 177.477 60.676H177.977H178.477C178.477 57.7837 177.819 55.3327 176.47 53.3543L176.057 53.636ZM177.977 60.676H177.477C177.477 63.6281 176.517 66.1993 174.592 68.4117L174.969 68.74L175.346 69.0683C177.431 66.6727 178.477 63.8679 178.477 60.676H177.977ZM174.969 68.74L174.591 68.4123C172.697 70.5944 170.047 72.3013 166.61 73.5166L166.777 73.988L166.944 74.4594C170.505 73.2 173.315 71.4083 175.347 69.0677L174.969 68.74ZM166.777 73.988L166.615 73.5148C163.178 74.6884 159.245 75.28 154.809 75.28V75.78V76.28C159.333 76.28 163.378 75.6769 166.939 74.4612L166.777 73.988ZM154.809 75.78V75.28C149.855 75.28 145.692 74.6657 142.306 73.4533L142.137 73.924L141.968 74.3947C145.494 75.657 149.779 76.28 154.809 76.28V75.78ZM142.137 73.924L142.306 73.4533C138.903 72.2351 136.409 70.6342 134.777 68.6759L134.393 68.996L134.009 69.3161C135.79 71.4538 138.459 73.1382 141.968 74.3947L142.137 73.924ZM134.393 68.996L134.78 68.6798C133.139 66.6698 132.333 64.4967 132.333 62.148H131.833H131.333C131.333 64.7486 132.233 67.1409 134.006 69.3122L134.393 68.996ZM131.833 62.148H132.333C132.333 61.8285 132.425 61.6232 132.571 61.4776L132.217 61.124L131.863 60.7704C131.497 61.1368 131.333 61.6142 131.333 62.148H131.833ZM132.217 61.124L132.542 61.5036C132.742 61.3321 132.987 61.24 133.305 61.24V60.74V60.24C132.77 60.24 132.289 60.4039 131.892 60.7444L132.217 61.124ZM133.305 60.74V61.24H146.425V60.74V60.24H133.305V60.74ZM146.425 60.74V61.24C147.209 61.24 147.8 61.4782 148.247 61.9256L148.601 61.572L148.955 61.2184C148.293 60.5564 147.433 60.24 146.425 60.24V60.74ZM148.601 61.572L148.258 61.9361C149.038 62.6696 149.918 63.1813 150.896 63.4608L151.033 62.98L151.17 62.4992C150.356 62.2667 149.615 61.8397 148.944 61.2079L148.601 61.572ZM151.033 62.98L150.917 63.4664C151.869 63.6931 153.173 63.8 154.809 63.8V63.3V62.8C153.202 62.8 151.989 62.6936 151.149 62.4936L151.033 62.98ZM154.809 63.3V63.8C156.849 63.8 158.429 63.6457 159.515 63.3142C160.567 62.9929 161.389 62.4203 161.389 61.444H160.889H160.389C160.389 61.705 160.197 62.0604 159.223 62.3578C158.282 62.6449 156.823 62.8 154.809 62.8V63.3ZM160.889 61.444H161.389C161.389 60.7104 160.976 60.1422 160.319 59.7382L160.057 60.164L159.795 60.5898C160.248 60.8685 160.389 61.1536 160.389 61.444H160.889ZM160.057 60.164L160.357 59.764C159.745 59.3052 158.706 58.9699 157.333 58.7126L157.241 59.204L157.149 59.6954C158.507 59.9501 159.345 60.2547 159.757 60.564L160.057 60.164ZM157.241 59.204L157.351 58.7163C156.002 58.4115 154.017 58.1105 151.41 57.8113L151.353 58.308L151.296 58.8047C153.894 59.1029 155.835 59.3991 157.131 59.6917L157.241 59.204ZM151.353 58.308L151.411 57.8114C145.608 57.1337 141.222 55.6991 138.203 53.5488L137.913 53.956L137.623 54.3632C140.833 56.6502 145.407 58.117 151.295 58.8046L151.353 58.308ZM137.913 53.956L138.207 53.5514C135.231 51.391 133.741 48.3679 133.741 44.42H133.241H132.741C132.741 48.6641 134.366 51.9983 137.619 54.3606L137.913 53.956ZM133.241 44.42H133.741C133.741 41.6277 134.58 39.1775 136.258 37.0496L135.865 36.74L135.472 36.4304C133.651 38.7398 132.741 41.4096 132.741 44.42H133.241ZM135.865 36.74L136.258 37.0496C137.941 34.9149 140.335 33.2343 143.469 32.0223L143.289 31.556L143.109 31.0896C139.843 32.3524 137.288 34.1278 135.472 36.4304L135.865 36.74ZM143.289 31.556L143.467 32.0231C146.642 30.8119 150.334 30.2 154.553 30.2V29.7V29.2C150.239 29.2 146.422 29.8255 143.111 31.0888L143.289 31.556ZM154.553 29.7V30.2C158.938 30.2 162.752 30.8958 166.006 32.2725L166.201 31.812L166.396 31.3515C162.994 29.9122 159.042 29.2 154.553 29.2V29.7ZM166.201 31.812L166.011 32.2746C169.289 33.6194 171.753 35.286 173.437 37.2567L173.817 36.932L174.197 36.6073C172.382 34.482 169.769 32.7352 166.391 31.3494L166.201 31.812ZM173.817 36.932L173.437 37.2567C175.138 39.2479 175.941 41.1422 175.941 42.948H176.441H176.941C176.941 40.8284 175.995 38.7121 174.197 36.6073L173.817 36.932ZM176.441 42.948H175.941C175.941 43.2427 175.845 43.4401 175.668 43.5924L175.993 43.972L176.318 44.3516C176.738 43.9919 176.941 43.5066 176.941 42.948H176.441ZM175.993 43.972L175.639 43.6184C175.503 43.7552 175.283 43.856 174.905 43.856V44.356V44.856C175.466 44.856 175.971 44.7008 176.347 44.3256L175.993 43.972ZM174.905 44.356V43.856H161.145V44.356V44.856H174.905V44.356ZM161.145 44.356V43.856C160.549 43.856 160.001 43.6498 159.486 43.2084L159.161 43.588L158.836 43.9676C159.515 44.5502 160.29 44.856 161.145 44.856V44.356ZM159.161 43.588L159.497 43.218C158.98 42.7478 158.373 42.376 157.683 42.0998L157.497 42.564L157.311 43.0282C157.901 43.264 158.403 43.5748 158.825 43.958L159.161 43.588ZM157.497 42.564L157.683 42.0998C156.951 41.8073 155.892 41.68 154.553 41.68V42.18V42.68C155.86 42.68 156.762 42.8087 157.311 43.0282L157.497 42.564ZM154.553 42.18V41.68C153.104 41.68 151.952 41.8292 151.144 42.1667C150.735 42.3375 150.388 42.5674 150.142 42.8762C149.89 43.1927 149.765 43.5652 149.765 43.972H150.265H150.765C150.765 43.7814 150.819 43.6312 150.924 43.4998C151.035 43.3605 151.224 43.2172 151.53 43.0893C152.152 42.8295 153.143 42.68 154.553 42.68V42.18ZM150.265 43.972H149.765C149.765 44.9685 150.636 45.5897 151.765 45.9805L151.929 45.508L152.093 45.0355C151.003 44.6583 150.765 44.2555 150.765 43.972H150.265ZM151.929 45.508L151.782 45.9859C152.942 46.3429 155.206 46.7094 158.528 47.0927L158.585 46.596L158.642 46.0993C155.308 45.7145 153.134 45.3558 152.076 45.0301L151.929 45.508ZM195.68 46.596L195.623 47.0927L195.626 47.0931L195.68 46.596ZM206.944 49.092L206.755 49.5548L206.757 49.5558L206.944 49.092ZM213.152 53.636L212.739 53.9177V53.9177L213.152 53.636ZM212.064 68.74L211.687 68.4117L211.686 68.4123L212.064 68.74ZM203.872 73.988L204.034 74.4612L204.039 74.4594L203.872 73.988ZM179.232 73.924L179.063 74.3947V74.3947L179.232 73.924ZM171.488 68.996L171.101 69.3122L171.104 69.3161L171.488 68.996ZM169.312 61.124L168.987 60.7444C168.977 60.7527 168.967 60.7614 168.958 60.7704L169.312 61.124ZM185.696 61.572L185.342 61.9256C185.346 61.9291 185.35 61.9326 185.353 61.9361L185.696 61.572ZM188.128 62.98L187.991 63.4608C187.998 63.4628 188.005 63.4647 188.012 63.4664L188.128 62.98ZM197.152 60.164L196.852 60.564C196.864 60.5732 196.877 60.5818 196.89 60.5898L197.152 60.164ZM194.336 59.204L194.226 59.6917C194.232 59.6931 194.238 59.6943 194.244 59.6954L194.336 59.204ZM188.448 58.308L188.39 58.8046L188.391 58.8047L188.448 58.308ZM175.008 53.956L174.714 54.3606L174.718 54.3632L175.008 53.956ZM172.96 36.74L172.567 36.4304V36.4304L172.96 36.74ZM180.384 31.556L180.206 31.0888L180.204 31.0896L180.384 31.556ZM203.296 31.812L203.101 32.2725L203.106 32.2746L203.296 31.812ZM210.912 36.932L210.532 37.2567V37.2567L210.912 36.932ZM213.088 43.972L212.763 43.5924C212.753 43.6007 212.743 43.6094 212.734 43.6184L213.088 43.972ZM196.256 43.588L195.92 43.958C195.923 43.9612 195.927 43.9645 195.931 43.9676L196.256 43.588ZM194.592 42.564L194.406 43.0282V43.0282L194.592 42.564ZM189.024 45.508L188.86 45.9805C188.866 45.9824 188.871 45.9842 188.877 45.9859L189.024 45.508ZM195.68 46.596L195.626 47.0931C200.295 47.6024 203.999 48.4274 206.755 49.5548L206.944 49.092L207.133 48.6292C204.257 47.4526 200.451 46.6136 195.734 46.0989L195.68 46.596ZM206.944 49.092L206.757 49.5558C209.556 50.6836 211.531 52.1465 212.739 53.9177L213.152 53.636L213.565 53.3543C212.213 51.3709 210.049 49.8044 207.131 48.6282L206.944 49.092ZM213.152 53.636L212.739 53.9177C213.95 55.694 214.572 57.9363 214.572 60.676H215.072H215.572C215.572 57.7837 214.914 55.3327 213.565 53.3543L213.152 53.636ZM215.072 60.676H214.572C214.572 63.6281 213.612 66.1993 211.687 68.4117L212.064 68.74L212.441 69.0683C214.526 66.6727 215.572 63.8679 215.572 60.676H215.072ZM212.064 68.74L211.686 68.4123C209.792 70.5944 207.142 72.3013 203.705 73.5166L203.872 73.988L204.039 74.4594C207.6 73.2 210.41 71.4083 212.442 69.0677L212.064 68.74ZM203.872 73.988L203.71 73.5148C200.273 74.6884 196.34 75.28 191.904 75.28V75.78V76.28C196.428 76.28 200.473 75.6769 204.034 74.4612L203.872 73.988ZM191.904 75.78V75.28C186.95 75.28 182.787 74.6657 179.401 73.4533L179.232 73.924L179.063 74.3947C182.589 75.657 186.874 76.28 191.904 76.28V75.78ZM179.232 73.924L179.401 73.4533C175.998 72.2351 173.504 70.6342 171.872 68.6759L171.488 68.996L171.104 69.3161C172.885 71.4538 175.554 73.1382 179.063 74.3947L179.232 73.924ZM171.488 68.996L171.875 68.6798C170.234 66.6698 169.428 64.4967 169.428 62.148H168.928H168.428C168.428 64.7486 169.328 67.1409 171.101 69.3122L171.488 68.996ZM168.928 62.148H169.428C169.428 61.8285 169.52 61.6232 169.666 61.4776L169.312 61.124L168.958 60.7704C168.592 61.1368 168.428 61.6142 168.428 62.148H168.928ZM169.312 61.124L169.637 61.5036C169.837 61.3321 170.082 61.24 170.4 61.24V60.74V60.24C169.865 60.24 169.384 60.4039 168.987 60.7444L169.312 61.124ZM170.4 60.74V61.24H183.52V60.74V60.24H170.4V60.74ZM183.52 60.74V61.24C184.304 61.24 184.895 61.4782 185.342 61.9256L185.696 61.572L186.05 61.2184C185.388 60.5564 184.528 60.24 183.52 60.24V60.74ZM185.696 61.572L185.353 61.9361C186.133 62.6696 187.013 63.1813 187.991 63.4608L188.128 62.98L188.265 62.4992C187.451 62.2667 186.71 61.8397 186.039 61.2079L185.696 61.572ZM188.128 62.98L188.012 63.4664C188.964 63.6931 190.268 63.8 191.904 63.8V63.3V62.8C190.297 62.8 189.084 62.6936 188.244 62.4936L188.128 62.98ZM191.904 63.3V63.8C193.944 63.8 195.524 63.6457 196.61 63.3142C197.663 62.9929 198.484 62.4203 198.484 61.444H197.984H197.484C197.484 61.705 197.292 62.0604 196.318 62.3578C195.377 62.6449 193.918 62.8 191.904 62.8V63.3ZM197.984 61.444H198.484C198.484 60.7104 198.071 60.1422 197.414 59.7382L197.152 60.164L196.89 60.5898C197.343 60.8685 197.484 61.1536 197.484 61.444H197.984ZM197.152 60.164L197.452 59.764C196.84 59.3052 195.801 58.9699 194.428 58.7126L194.336 59.204L194.244 59.6954C195.602 59.9501 196.44 60.2547 196.852 60.564L197.152 60.164ZM194.336 59.204L194.446 58.7163C193.097 58.4115 191.112 58.1105 188.505 57.8113L188.448 58.308L188.391 58.8047C190.989 59.1029 192.93 59.3991 194.226 59.6917L194.336 59.204ZM188.448 58.308L188.506 57.8114C182.703 57.1337 178.317 55.6991 175.298 53.5488L175.008 53.956L174.718 54.3632C177.928 56.6502 182.502 58.117 188.39 58.8046L188.448 58.308ZM175.008 53.956L175.302 53.5514C172.326 51.391 170.836 48.3679 170.836 44.42H170.336H169.836C169.836 48.6641 171.461 51.9983 174.714 54.3606L175.008 53.956ZM170.336 44.42H170.836C170.836 41.6277 171.675 39.1775 173.353 37.0496L172.96 36.74L172.567 36.4304C170.746 38.7398 169.836 41.4096 169.836 44.42H170.336ZM172.96 36.74L173.353 37.0496C175.036 34.9149 177.43 33.2343 180.564 32.0223L180.384 31.556L180.204 31.0896C176.938 32.3524 174.383 34.1278 172.567 36.4304L172.96 36.74ZM180.384 31.556L180.562 32.0231C183.737 30.8119 187.429 30.2 191.648 30.2V29.7V29.2C187.334 29.2 183.517 29.8255 180.206 31.0888L180.384 31.556ZM191.648 29.7V30.2C196.033 30.2 199.847 30.8958 203.101 32.2725L203.296 31.812L203.491 31.3515C200.089 29.9122 196.137 29.2 191.648 29.2V29.7ZM203.296 31.812L203.106 32.2746C206.384 33.6194 208.848 35.286 210.532 37.2567L210.912 36.932L211.292 36.6073C209.477 34.482 206.864 32.7352 203.486 31.3494L203.296 31.812ZM210.912 36.932L210.532 37.2567C212.233 39.2479 213.036 41.1422 213.036 42.948H213.536H214.036C214.036 40.8284 213.09 38.7121 211.292 36.6073L210.912 36.932ZM213.536 42.948H213.036C213.036 43.2427 212.94 43.4401 212.763 43.5924L213.088 43.972L213.413 44.3516C213.833 43.9919 214.036 43.5066 214.036 42.948H213.536ZM213.088 43.972L212.734 43.6184C212.598 43.7552 212.378 43.856 212 43.856V44.356V44.856C212.561 44.856 213.066 44.7008 213.442 44.3256L213.088 43.972ZM212 44.356V43.856H198.24V44.356V44.856H212V44.356ZM198.24 44.356V43.856C197.644 43.856 197.096 43.6498 196.581 43.2084L196.256 43.588L195.931 43.9676C196.61 44.5502 197.385 44.856 198.24 44.856V44.356ZM196.256 43.588L196.592 43.218C196.075 42.7478 195.468 42.376 194.778 42.0998L194.592 42.564L194.406 43.0282C194.996 43.264 195.498 43.5748 195.92 43.958L196.256 43.588ZM194.592 42.564L194.778 42.0998C194.046 41.8073 192.987 41.68 191.648 41.68V42.18V42.68C192.955 42.68 193.858 42.8087 194.406 43.0282L194.592 42.564ZM191.648 42.18V41.68C190.199 41.68 189.047 41.8292 188.239 42.1667C187.83 42.3375 187.483 42.5674 187.237 42.8762C186.985 43.1927 186.86 43.5652 186.86 43.972H187.36H187.86C187.86 43.7814 187.914 43.6312 188.019 43.4998C188.13 43.3605 188.319 43.2172 188.625 43.0893C189.247 42.8295 190.238 42.68 191.648 42.68V42.18ZM187.36 43.972H186.86C186.86 44.9685 187.731 45.5897 188.86 45.9805L189.024 45.508L189.188 45.0355C188.098 44.6583 187.86 44.2555 187.86 43.972H187.36ZM189.024 45.508L188.877 45.9859C190.037 46.3429 192.301 46.7094 195.623 47.0927L195.68 46.596L195.737 46.0993C192.403 45.7145 190.229 45.3558 189.171 45.0301L189.024 45.508ZM225.095 61.892L224.779 62.2797L224.786 62.2852L225.095 61.892ZM233.863 62.404L233.576 61.9944V61.9944L233.863 62.404ZM236.039 59.716L235.592 59.4924V59.4924L236.039 59.716ZM253.063 58.5L252.683 58.8254C252.7 58.8448 252.718 58.863 252.738 58.8796L253.063 58.5ZM250.887 67.14L251.295 67.4286L251.298 67.4253L250.887 67.14ZM242.887 73.348L243.095 73.8026L243.098 73.8015L242.887 73.348ZM217.671 73.732L217.486 74.1967L217.493 74.1992L217.671 73.732ZM209.223 67.332L208.817 67.6243L208.819 67.6272L209.223 67.332ZM209.223 38.212L209.627 38.5072L209.629 38.5043L209.223 38.212ZM217.671 31.812L217.851 32.2785L217.854 32.2774L217.671 31.812ZM242.887 32.196L242.674 32.6486L242.681 32.6516L242.887 32.196ZM250.887 38.404L250.476 38.6893L250.479 38.6926L250.887 38.404ZM253.063 47.044L253.417 47.3976H253.417L253.063 47.044ZM236.039 45.764L235.592 45.9876V45.9876L236.039 45.764ZM233.863 43.076L234.15 42.6664V42.6664L233.863 43.076ZM225.095 43.588L224.786 43.1948L224.779 43.2004L225.095 43.588ZM223.367 57.86H222.867C222.867 59.73 223.489 61.2287 224.779 62.2796L225.095 61.892L225.411 61.5044C224.397 60.678 223.867 59.4887 223.867 57.86H223.367ZM225.095 61.892L224.786 62.2852C226.093 63.3124 227.814 63.8 229.895 63.8V63.3V62.8C227.966 62.8 226.486 62.349 225.404 61.4988L225.095 61.892ZM229.895 63.3V63.8C231.724 63.8 233.171 63.4987 234.15 62.8136L233.863 62.404L233.576 61.9944C232.848 62.5039 231.65 62.8 229.895 62.8V63.3ZM233.863 62.404L234.15 62.8136C235.088 62.157 235.862 61.1882 236.486 59.9396L236.039 59.716L235.592 59.4924C235.021 60.6331 234.345 61.4563 233.576 61.9944L233.863 62.404ZM236.039 59.716L236.486 59.9396C236.988 58.9358 237.592 58.552 238.279 58.552V58.052V57.552C237.089 57.552 236.199 58.2775 235.592 59.4924L236.039 59.716ZM238.279 58.052V58.552H252.103V58.052V57.552H238.279V58.052ZM252.103 58.052V58.552C252.337 58.552 252.52 58.6344 252.683 58.8254L253.063 58.5L253.443 58.1746C253.094 57.7682 252.637 57.552 252.103 57.552V58.052ZM253.063 58.5L252.738 58.8796C252.929 59.0433 253.011 59.226 253.011 59.46H253.511H254.011C254.011 58.926 253.795 58.4687 253.388 58.1204L253.063 58.5ZM253.511 59.46H253.011C253.011 61.9435 252.178 64.4058 250.476 66.8547L250.887 67.14L251.298 67.4253C253.095 64.8395 254.011 62.1818 254.011 59.46H253.511ZM250.887 67.14L250.479 66.8514C248.793 69.2363 246.205 71.2564 242.676 72.8945L242.887 73.348L243.098 73.8015C246.737 72.1116 249.483 69.993 251.295 67.4286L250.887 67.14ZM242.887 73.348L242.679 72.8934C239.22 74.477 234.965 75.28 229.895 75.28V75.78V76.28C235.065 76.28 239.471 75.4617 243.095 73.8026L242.887 73.348ZM229.895 75.78V75.28C225.379 75.28 221.366 74.6047 217.849 73.2648L217.671 73.732L217.493 74.1992C221.144 75.5899 225.28 76.28 229.895 76.28V75.78ZM217.671 73.732L217.856 73.2674C214.395 71.8914 211.657 69.8137 209.627 67.0368L209.223 67.332L208.819 67.6272C210.97 70.5676 213.864 72.7566 217.486 74.1966L217.671 73.732ZM209.223 67.332L209.629 67.0397C207.611 64.2397 206.587 60.7424 206.587 56.516H206.087H205.587C205.587 60.9083 206.654 64.6216 208.817 67.6243L209.223 67.332ZM206.087 56.516H206.587V48.964H206.087H205.587V56.516H206.087ZM206.087 48.964H206.587C206.587 44.7373 207.611 41.263 209.627 38.5072L209.223 38.212L208.819 37.9168C206.654 40.8784 205.587 44.572 205.587 48.964H206.087ZM209.223 38.212L209.629 38.5043C211.659 35.6867 214.394 33.6112 217.851 32.2785L217.671 31.812L217.491 31.3455C213.865 32.7435 210.968 34.9347 208.817 37.9197L209.223 38.212ZM217.671 31.812L217.854 32.2774C221.37 30.8961 225.381 30.2 229.895 30.2V29.7V29.2C225.278 29.2 221.14 29.9119 217.488 31.3466L217.671 31.812ZM229.895 29.7V30.2C234.963 30.2 239.217 31.0239 242.674 32.6485L242.887 32.196L243.1 31.7435C239.475 30.0401 235.067 29.2 229.895 29.2V29.7ZM242.887 32.196L242.681 32.6516C246.206 34.246 248.791 36.2644 250.476 38.6893L250.887 38.404L251.298 38.1187C249.484 35.5089 246.736 33.3886 243.093 31.7404L242.887 32.196ZM250.887 38.404L250.479 38.6926C252.178 41.0972 253.011 43.5369 253.011 46.02H253.511H254.011C254.011 43.2977 253.094 40.6602 251.295 38.1154L250.887 38.404ZM253.511 46.02H253.011C253.011 46.2575 252.925 46.4753 252.709 46.6904L253.063 47.044L253.417 47.3976C253.799 47.0154 254.011 46.5505 254.011 46.02H253.511ZM253.063 47.044L252.709 46.6904C252.553 46.8465 252.363 46.928 252.103 46.928V47.428V47.928C252.611 47.928 253.061 47.7534 253.417 47.3976L253.063 47.044ZM252.103 47.428V46.928H238.279V47.428V47.928H252.103V47.428ZM238.279 47.428V46.928C237.592 46.928 236.988 46.5442 236.486 45.5404L236.039 45.764L235.592 45.9876C236.199 47.2025 237.089 47.928 238.279 47.928V47.428ZM236.039 45.764L236.486 45.5404C235.862 44.2918 235.088 43.323 234.15 42.6664L233.863 43.076L233.576 43.4856C234.345 44.0237 235.021 44.8469 235.592 45.9876L236.039 45.764ZM233.863 43.076L234.15 42.6664C233.171 41.9813 231.724 41.68 229.895 41.68V42.18V42.68C231.65 42.68 232.848 42.976 233.576 43.4856L233.863 43.076ZM229.895 42.18V41.68C227.814 41.68 226.093 42.1676 224.786 43.1948L225.095 43.588L225.404 43.9812C226.486 43.131 227.966 42.68 229.895 42.68V42.18ZM225.095 43.588L224.779 43.2004C223.489 44.2513 222.867 45.75 222.867 47.62H223.367H223.867C223.867 45.9913 224.397 44.802 225.411 43.9756L225.095 43.588ZM223.367 47.62H222.867V57.86H223.367H223.867V47.62H223.367ZM287.189 49.924L286.794 49.617C286.787 49.6266 286.78 49.6365 286.773 49.6466L287.189 49.924ZM288.661 48.708L288.926 49.132L288.931 49.1286L288.661 48.708ZM315.541 31.428L315.284 30.9993C315.279 31.0019 315.275 31.0046 315.271 31.0074L315.541 31.428ZM317.077 44.484L316.703 44.1518L316.701 44.1547L317.077 44.484ZM316.117 45.316L315.852 44.892C315.843 44.8974 315.835 44.9032 315.826 44.9091L316.117 45.316ZM315.541 45.7L315.317 45.2528C315.303 45.2601 315.289 45.268 315.275 45.2767L315.541 45.7ZM304.341 52.74L304.075 52.3167C303.929 52.4082 303.841 52.5681 303.841 52.74C303.841 52.9119 303.929 53.0718 304.075 53.1633L304.341 52.74ZM315.541 59.78L315.275 60.2033C315.289 60.212 315.303 60.2199 315.317 60.2272L315.541 59.78ZM316.245 60.228L315.968 60.644C315.974 60.6484 315.981 60.6527 315.988 60.6567L316.245 60.228ZM317.205 61.188L316.768 61.4308C316.775 61.4426 316.782 61.4541 316.789 61.4653L317.205 61.188ZM317.205 73.86L317.559 74.2136V74.2136L317.205 73.86ZM315.541 74.052L315.271 74.4726C315.275 74.4754 315.279 74.4781 315.284 74.4807L315.541 74.052ZM288.661 56.772L288.931 56.3514L288.926 56.348L288.661 56.772ZM287.189 55.556L286.773 55.8333C286.78 55.8435 286.787 55.8534 286.794 55.863L287.189 55.556ZM286.805 51.396H287.305C287.305 50.8686 287.418 50.4822 287.605 50.2013L287.189 49.924L286.773 49.6466C286.448 50.1338 286.305 50.7287 286.305 51.396H286.805ZM287.189 49.924L287.584 50.231C287.83 49.9138 288.265 49.5452 288.926 49.132L288.661 48.708L288.396 48.284C287.692 48.7241 287.145 49.1662 286.794 49.617L287.189 49.924ZM288.661 48.708L288.931 49.1286L315.811 31.8486L315.541 31.428L315.271 31.0074L288.391 48.2874L288.661 48.708ZM315.541 31.428L315.798 31.8567C315.932 31.7768 316.077 31.736 316.245 31.736V31.236V30.736C315.901 30.736 315.577 30.8232 315.284 30.9993L315.541 31.428ZM316.245 31.236V31.736C316.505 31.736 316.695 31.8174 316.851 31.9736L317.205 31.62L317.559 31.2664C317.203 30.9105 316.753 30.736 316.245 30.736V31.236ZM317.205 31.62L316.851 31.9736C317.008 32.1297 317.089 32.3197 317.089 32.58H317.589H318.089C318.089 32.0723 317.914 31.6223 317.559 31.2664L317.205 31.62ZM317.589 32.58H317.089V42.948H317.589H318.089V32.58H317.589ZM317.589 42.948H317.089C317.089 43.4968 316.945 43.8803 316.703 44.1518L317.077 44.484L317.451 44.8162C317.892 44.3197 318.089 43.6792 318.089 42.948H317.589ZM317.077 44.484L316.701 44.1547C316.43 44.4638 316.147 44.7077 315.852 44.892L316.117 45.316L316.382 45.74C316.77 45.4977 317.126 45.1868 317.453 44.8132L317.077 44.484ZM316.117 45.316L315.826 44.9091C315.679 45.0143 315.561 45.0962 315.472 45.156C315.427 45.1859 315.391 45.209 315.363 45.2262C315.349 45.2347 315.338 45.2412 315.33 45.2459C315.326 45.2482 315.323 45.2499 315.321 45.2511C315.318 45.2524 315.317 45.2529 315.317 45.2528L315.541 45.7L315.765 46.1472C315.893 46.0831 316.12 45.9282 316.408 45.7229L316.117 45.316ZM315.541 45.7L315.275 45.2767L304.075 52.3167L304.341 52.74L304.607 53.1633L315.807 46.1233L315.541 45.7ZM304.341 52.74L304.075 53.1633L315.275 60.2033L315.541 59.78L315.807 59.3567L304.607 52.3167L304.341 52.74ZM315.541 59.78L315.317 60.2272C315.317 60.2272 315.319 60.2278 315.322 60.2295C315.325 60.2311 315.329 60.2333 315.334 60.2363C315.345 60.2423 315.358 60.2503 315.376 60.2607C315.411 60.2817 315.456 60.3098 315.513 60.3458C315.626 60.4178 315.777 60.5169 315.968 60.644L316.245 60.228L316.522 59.812C316.151 59.5646 315.885 59.3929 315.765 59.3328L315.541 59.78ZM316.245 60.228L315.988 60.6567C316.349 60.8737 316.603 61.1332 316.768 61.4308L317.205 61.188L317.642 60.9452C317.381 60.4748 316.994 60.0943 316.502 59.7993L316.245 60.228ZM317.205 61.188L316.789 61.4653C316.984 61.7584 317.089 62.1075 317.089 62.532H317.589H318.089C318.089 61.9325 317.938 61.3856 317.621 60.9106L317.205 61.188ZM317.589 62.532H317.089V72.9H317.589H318.089V62.532H317.589ZM317.589 72.9H317.089C317.089 73.1603 317.008 73.3503 316.851 73.5064L317.205 73.86L317.559 74.2136C317.914 73.8577 318.089 73.4077 318.089 72.9H317.589ZM317.205 73.86L316.851 73.5064C316.695 73.6625 316.505 73.744 316.245 73.744V74.244V74.744C316.753 74.744 317.203 74.5695 317.559 74.2136L317.205 73.86ZM316.245 74.244V73.744C316.077 73.744 315.932 73.7032 315.798 73.6233L315.541 74.052L315.284 74.4807C315.577 74.6568 315.901 74.744 316.245 74.744V74.244ZM315.541 74.052L315.811 73.6314L288.931 56.3514L288.661 56.772L288.391 57.1926L315.271 74.4726L315.541 74.052ZM288.661 56.772L288.926 56.348C288.265 55.9348 287.83 55.5662 287.584 55.249L287.189 55.556L286.794 55.863C287.145 56.3138 287.692 56.7559 288.396 57.196L288.661 56.772ZM287.189 55.556L287.605 55.2786C287.418 54.9978 287.305 54.6114 287.305 54.084H286.805H286.305C286.305 54.7513 286.448 55.3462 286.773 55.8333L287.189 55.556ZM286.805 54.084H287.305V51.396H286.805H286.305V54.084H286.805Z" fill="black" fill-opacity="0.35"/>
</g>
<defs>
<filter id="filter0_di_1_2" x="-3.8147e-06" y="-3.8147e-06" width="347.289" height="105.48" filterUnits="userSpaceOnUse" color-interpolation-filters="sRGB">
<feFlood flood-opacity="0" result="BackgroundImageFix"/>
<feColorMatrix in="SourceAlpha" type="matrix" values="0 0 0 0 0 0 0 0 0 0 0 0 0 0 0 0 0 0 127 0" result="hardAlpha"/>
<feMorphology radius="4" operator="dilate" in="SourceAlpha" result="effect1_dropShadow_1_2"/>
<feOffset/>
<feGaussianBlur stdDeviation="12.6"/>
<feComposite in2="hardAlpha" operator="out"/>
<feColorMatrix type="matrix" values="0 0 0 0 1 0 0 0 0 1 0 0 0 0 1 0 0 0 0.25 0"/>
<feBlend mode="normal" in2="BackgroundImageFix" result="effect1_dropShadow_1_2"/>
<feBlend mode="normal" in="SourceGraphic" in2="effect1_dropShadow_1_2" result="shape"/>
<feColorMatrix in="SourceAlpha" type="matrix" values="0 0 0 0 0 0 0 0 0 0 0 0 0 0 0 0 0 0 127 0" result="hardAlpha"/>
<feOffset dy="2"/>
<feGaussianBlur stdDeviation="1.8"/>
<feComposite in2="hardAlpha" operator="arithmetic" k2="-1" k3="1"/>
<feColorMatrix type="matrix" values="0 0 0 0 0 0 0 0 0 0 0 0 0 0 0 0 0 0 0.25 0"/>
<feBlend mode="normal" in2="shape" result="effect2_innerShadow_1_2"/>
</filter>
</defs>
</svg>
